<?xml version="1.0" encoding="UTF-8"?>
<!DOCTYPE svg PUBLIC "-//W3C//DTD SVG 1.1//EN" "http://www.w3.org/Graphics/SVG/1.1/DTD/svg11.dtd">
<svg width="160mm" height="90mm" viewBox="0 0 16000 9000" version="1.1" baseProfile="tiny" xmlns="http://www.w3.org/2000/svg" stroke-width="28.222" stroke-linejoin="round" xml:space="preserve">
 <path fill="rgb(255,255,255)" stroke="none" d="M 8000,8999 L 0,8999 0,0 15999,0 15999,8999 8000,8999 Z"/>
 <path fill="none" stroke="rgb(179,179,179)" stroke-linejoin="round" d="M 8310,8172 L 941,8172 941,1500 15679,1500 15679,8172 8310,8172 Z"/>
 <path fill="none" stroke="rgb(179,179,179)" stroke-linejoin="round" d="M 941,1499 L 941,8171"/>
 <path fill="none" stroke="rgb(179,179,179)" stroke-linejoin="round" d="M 2169,1499 L 2169,8171"/>
 <path fill="none" stroke="rgb(179,179,179)" stroke-linejoin="round" d="M 3397,1499 L 3397,8171"/>
 <path fill="none" stroke="rgb(179,179,179)" stroke-linejoin="round" d="M 4625,1499 L 4625,8171"/>
 <path fill="none" stroke="rgb(179,179,179)" stroke-linejoin="round" d="M 5854,1499 L 5854,8171"/>
 <path fill="none" stroke="rgb(179,179,179)" stroke-linejoin="round" d="M 7082,1499 L 7082,8171"/>
 <path fill="none" stroke="rgb(179,179,179)" stroke-linejoin="round" d="M 8309,1499 L 8309,8171"/>
 <path fill="none" stroke="rgb(179,179,179)" stroke-linejoin="round" d="M 9537,1499 L 9537,8171"/>
 <path fill="none" stroke="rgb(179,179,179)" stroke-linejoin="round" d="M 10766,1499 L 10766,8171"/>
 <path fill="none" stroke="rgb(179,179,179)" stroke-linejoin="round" d="M 11994,1499 L 11994,8171"/>
 <path fill="none" stroke="rgb(179,179,179)" stroke-linejoin="round" d="M 13222,1499 L 13222,8171"/>
 <path fill="none" stroke="rgb(179,179,179)" stroke-linejoin="round" d="M 14450,1499 L 14450,8171"/>
 <path fill="none" stroke="rgb(179,179,179)" stroke-linejoin="round" d="M 15679,1499 L 15679,8171"/>
 <path fill="none" stroke="rgb(179,179,179)" stroke-linejoin="round" d="M 15679,8171 L 941,8171"/>
 <path fill="none" stroke="rgb(179,179,179)" stroke-linejoin="round" d="M 15679,7058 L 941,7058"/>
 <path fill="none" stroke="rgb(179,179,179)" stroke-linejoin="round" d="M 15679,5946 L 941,5946"/>
 <path fill="none" stroke="rgb(179,179,179)" stroke-linejoin="round" d="M 15679,4834 L 941,4834"/>
 <path fill="none" stroke="rgb(179,179,179)" stroke-linejoin="round" d="M 15679,3723 L 941,3723"/>
 <path fill="none" stroke="rgb(179,179,179)" stroke-linejoin="round" d="M 15679,2611 L 941,2611"/>
 <path fill="none" stroke="rgb(179,179,179)" stroke-linejoin="round" d="M 15679,1499 L 941,1499"/>
 <path fill="none" stroke="rgb(179,179,179)" stroke-linejoin="round" d="M 941,8321 L 941,8171"/>
 <path fill="none" stroke="rgb(179,179,179)" stroke-linejoin="round" d="M 941,8321 L 941,8171"/>
 <path fill="none" stroke="rgb(179,179,179)" stroke-linejoin="round" d="M 2169,8321 L 2169,8171"/>
 <path fill="none" stroke="rgb(179,179,179)" stroke-linejoin="round" d="M 2169,8321 L 2169,8171"/>
 <path fill="none" stroke="rgb(179,179,179)" stroke-linejoin="round" d="M 3397,8321 L 3397,8171"/>
 <path fill="none" stroke="rgb(179,179,179)" stroke-linejoin="round" d="M 3397,8321 L 3397,8171"/>
 <path fill="none" stroke="rgb(179,179,179)" stroke-linejoin="round" d="M 4625,8321 L 4625,8171"/>
 <path fill="none" stroke="rgb(179,179,179)" stroke-linejoin="round" d="M 4625,8321 L 4625,8171"/>
 <path fill="none" stroke="rgb(179,179,179)" stroke-linejoin="round" d="M 5854,8321 L 5854,8171"/>
 <path fill="none" stroke="rgb(179,179,179)" stroke-linejoin="round" d="M 5854,8321 L 5854,8171"/>
 <path fill="none" stroke="rgb(179,179,179)" stroke-linejoin="round" d="M 7082,8321 L 7082,8171"/>
 <path fill="none" stroke="rgb(179,179,179)" stroke-linejoin="round" d="M 7082,8321 L 7082,8171"/>
 <path fill="none" stroke="rgb(179,179,179)" stroke-linejoin="round" d="M 8309,8321 L 8309,8171"/>
 <path fill="none" stroke="rgb(179,179,179)" stroke-linejoin="round" d="M 8309,8321 L 8309,8171"/>
 <path fill="none" stroke="rgb(179,179,179)" stroke-linejoin="round" d="M 9537,8321 L 9537,8171"/>
 <path fill="none" stroke="rgb(179,179,179)" stroke-linejoin="round" d="M 9537,8321 L 9537,8171"/>
 <path fill="none" stroke="rgb(179,179,179)" stroke-linejoin="round" d="M 10766,8321 L 10766,8171"/>
 <path fill="none" stroke="rgb(179,179,179)" stroke-linejoin="round" d="M 10766,8321 L 10766,8171"/>
 <path fill="none" stroke="rgb(179,179,179)" stroke-linejoin="round" d="M 11994,8321 L 11994,8171"/>
 <path fill="none" stroke="rgb(179,179,179)" stroke-linejoin="round" d="M 11994,8321 L 11994,8171"/>
 <path fill="none" stroke="rgb(179,179,179)" stroke-linejoin="round" d="M 13222,8321 L 13222,8171"/>
 <path fill="none" stroke="rgb(179,179,179)" stroke-linejoin="round" d="M 13222,8321 L 13222,8171"/>
 <path fill="none" stroke="rgb(179,179,179)" stroke-linejoin="round" d="M 14450,8321 L 14450,8171"/>
 <path fill="none" stroke="rgb(179,179,179)" stroke-linejoin="round" d="M 14450,8321 L 14450,8171"/>
 <path fill="none" stroke="rgb(179,179,179)" stroke-linejoin="round" d="M 15679,8321 L 15679,8171"/>
 <path fill="none" stroke="rgb(179,179,179)" stroke-linejoin="round" d="M 15679,8321 L 15679,8171"/>
 <path fill="none" stroke="rgb(179,179,179)" stroke-linejoin="round" d="M 941,8171 L 15679,8171"/>
 <path fill="none" stroke="rgb(179,179,179)" stroke-linejoin="round" d="M 791,8171 L 941,8171"/>
 <path fill="none" stroke="rgb(179,179,179)" stroke-linejoin="round" d="M 791,8171 L 941,8171"/>
 <path fill="none" stroke="rgb(179,179,179)" stroke-linejoin="round" d="M 791,7058 L 941,7058"/>
 <path fill="none" stroke="rgb(179,179,179)" stroke-linejoin="round" d="M 791,7058 L 941,7058"/>
 <path fill="none" stroke="rgb(179,179,179)" stroke-linejoin="round" d="M 791,5946 L 941,5946"/>
 <path fill="none" stroke="rgb(179,179,179)" stroke-linejoin="round" d="M 791,5946 L 941,5946"/>
 <path fill="none" stroke="rgb(179,179,179)" stroke-linejoin="round" d="M 791,4834 L 941,4834"/>
 <path fill="none" stroke="rgb(179,179,179)" stroke-linejoin="round" d="M 791,4834 L 941,4834"/>
 <path fill="none" stroke="rgb(179,179,179)" stroke-linejoin="round" d="M 791,3723 L 941,3723"/>
 <path fill="none" stroke="rgb(179,179,179)" stroke-linejoin="round" d="M 791,3723 L 941,3723"/>
 <path fill="none" stroke="rgb(179,179,179)" stroke-linejoin="round" d="M 791,2611 L 941,2611"/>
 <path fill="none" stroke="rgb(179,179,179)" stroke-linejoin="round" d="M 791,2611 L 941,2611"/>
 <path fill="none" stroke="rgb(179,179,179)" stroke-linejoin="round" d="M 791,1499 L 941,1499"/>
 <path fill="none" stroke="rgb(179,179,179)" stroke-linejoin="round" d="M 791,1499 L 941,1499"/>
 <path fill="none" stroke="rgb(179,179,179)" stroke-linejoin="round" d="M 941,8171 L 941,1499"/>
 <path fill="rgb(0,69,134)" stroke="none" d="M 14757,8171 L 15371,8171 15371,3723 14757,3723 14757,8171 Z"/>
 <path fill="rgb(0,69,134)" stroke="none" d="M 13529,8171 L 14143,8171 14143,2611 13529,2611 13529,8171 Z"/>
 <path fill="rgb(0,69,134)" stroke="none" d="M 12301,8171 L 12915,8171 12915,5390 12301,5390 12301,8171 Z"/>
 <path fill="rgb(0,69,134)" stroke="none" d="M 11073,8171 L 11687,8171 11687,4834 11073,4834 11073,8171 Z"/>
 <path fill="rgb(0,69,134)" stroke="none" d="M 9844,8171 L 10458,8171 10458,5946 9844,5946 9844,8171 Z"/>
 <path fill="rgb(0,69,134)" stroke="none" d="M 8616,8171 L 9230,8171 9230,4279 8616,4279 8616,8171 Z"/>
 <path fill="rgb(0,69,134)" stroke="none" d="M 7389,8171 L 8002,8171 8002,5946 7389,5946 7389,8171 Z"/>
 <path fill="rgb(0,69,134)" stroke="none" d="M 6161,8171 L 6775,8171 6775,7058 6161,7058 6161,8171 Z"/>
 <path fill="rgb(0,69,134)" stroke="none" d="M 4932,8171 L 5546,8171 5546,7614 4932,7614 4932,8171 Z"/>
 <path fill="rgb(0,69,134)" stroke="none" d="M 3704,8171 L 4318,8171 4318,7614 3704,7614 3704,8171 Z"/>
 <path fill="rgb(0,69,134)" stroke="none" d="M 2476,8171 L 3090,8171 3090,7614 2476,7614 2476,8171 Z"/>
 <path fill="rgb(0,69,134)" stroke="none" d="M 1248,8171 L 1862,8171 1862,7614 1248,7614 1248,8171 Z"/>
 <text class="TextShape"><tspan class="TextParagraph" font-family="Liberation Sans, sans-serif" font-size="353px" font-weight="400"><tspan class="TextPosition" x="1184" y="8739"/><tspan class="TextPosition" x="1184" y="8739"><tspan fill="rgb(0,0,0)" stroke="none">1998</tspan></tspan></tspan></text>
 <text class="TextShape"><tspan class="TextParagraph" font-family="Liberation Sans, sans-serif" font-size="353px" font-weight="400"><tspan class="TextPosition" x="2412" y="8739"/><tspan class="TextPosition" x="2412" y="8739"><tspan fill="rgb(0,0,0)" stroke="none">2005</tspan></tspan></tspan></text>
 <text class="TextShape"><tspan class="TextParagraph" font-family="Liberation Sans, sans-serif" font-size="353px" font-weight="400"><tspan class="TextPosition" x="3640" y="8739"/><tspan class="TextPosition" x="3640" y="8739"><tspan fill="rgb(0,0,0)" stroke="none">2006</tspan></tspan></tspan></text>
 <text class="TextShape"><tspan class="TextParagraph" font-family="Liberation Sans, sans-serif" font-size="353px" font-weight="400"><tspan class="TextPosition" x="4868" y="8739"/><tspan class="TextPosition" x="4868" y="8739"><tspan fill="rgb(0,0,0)" stroke="none">2007</tspan></tspan></tspan></text>
 <text class="TextShape"><tspan class="TextParagraph" font-family="Liberation Sans, sans-serif" font-size="353px" font-weight="400"><tspan class="TextPosition" x="6097" y="8739"/><tspan class="TextPosition" x="6097" y="8739"><tspan fill="rgb(0,0,0)" stroke="none">2008</tspan></tspan></tspan></text>
 <text class="TextShape"><tspan class="TextParagraph" font-family="Liberation Sans, sans-serif" font-size="353px" font-weight="400"><tspan class="TextPosition" x="7325" y="8739"/><tspan class="TextPosition" x="7325" y="8739"><tspan fill="rgb(0,0,0)" stroke="none">2009</tspan></tspan></tspan></text>
 <text class="TextShape"><tspan class="TextParagraph" font-family="Liberation Sans, sans-serif" font-size="353px" font-weight="400"><tspan class="TextPosition" x="8553" y="8739"/><tspan class="TextPosition" x="8553" y="8739"><tspan fill="rgb(0,0,0)" stroke="none">2010</tspan></tspan></tspan></text>
 <text class="TextShape"><tspan class="TextParagraph" font-family="Liberation Sans, sans-serif" font-size="353px" font-weight="400"><tspan class="TextPosition" x="9781" y="8739"/><tspan class="TextPosition" x="9781" y="8739"><tspan fill="rgb(0,0,0)" stroke="none">2011</tspan></tspan></tspan></text>
 <text class="TextShape"><tspan class="TextParagraph" font-family="Liberation Sans, sans-serif" font-size="353px" font-weight="400"><tspan class="TextPosition" x="11010" y="8739"/><tspan class="TextPosition" x="11010" y="8739"><tspan fill="rgb(0,0,0)" stroke="none">2012</tspan></tspan></tspan></text>
 <text class="TextShape"><tspan class="TextParagraph" font-family="Liberation Sans, sans-serif" font-size="353px" font-weight="400"><tspan class="TextPosition" x="12238" y="8739"/><tspan class="TextPosition" x="12238" y="8739"><tspan fill="rgb(0,0,0)" stroke="none">2013</tspan></tspan></tspan></text>
 <text class="TextShape"><tspan class="TextParagraph" font-family="Liberation Sans, sans-serif" font-size="353px" font-weight="400"><tspan class="TextPosition" x="13466" y="8739"/><tspan class="TextPosition" x="13466" y="8739"><tspan fill="rgb(0,0,0)" stroke="none">2014</tspan></tspan></tspan></text>
 <text class="TextShape"><tspan class="TextParagraph" font-family="Liberation Sans, sans-serif" font-size="353px" font-weight="400"><tspan class="TextPosition" x="14694" y="8739"/><tspan class="TextPosition" x="14694" y="8739"><tspan fill="rgb(0,0,0)" stroke="none">2015</tspan></tspan></tspan></text>
 <text class="TextShape"><tspan class="TextParagraph" font-family="Liberation Sans, sans-serif" font-size="353px" font-weight="400"><tspan class="TextPosition" x="506" y="8292"/><tspan class="TextPosition" x="506" y="8292"><tspan fill="rgb(0,0,0)" stroke="none">0</tspan></tspan></tspan></text>
 <text class="TextShape"><tspan class="TextParagraph" font-family="Liberation Sans, sans-serif" font-size="353px" font-weight="400"><tspan class="TextPosition" x="506" y="7179"/><tspan class="TextPosition" x="506" y="7179"><tspan fill="rgb(0,0,0)" stroke="none">2</tspan></tspan></tspan></text>
 <text class="TextShape"><tspan class="TextParagraph" font-family="Liberation Sans, sans-serif" font-size="353px" font-weight="400"><tspan class="TextPosition" x="506" y="6067"/><tspan class="TextPosition" x="506" y="6067"><tspan fill="rgb(0,0,0)" stroke="none">4</tspan></tspan></tspan></text>
 <text class="TextShape"><tspan class="TextParagraph" font-family="Liberation Sans, sans-serif" font-size="353px" font-weight="400"><tspan class="TextPosition" x="506" y="4955"/><tspan class="TextPosition" x="506" y="4955"><tspan fill="rgb(0,0,0)" stroke="none">6</tspan></tspan></tspan></text>
 <text class="TextShape"><tspan class="TextParagraph" font-family="Liberation Sans, sans-serif" font-size="353px" font-weight="400"><tspan class="TextPosition" x="506" y="3843"/><tspan class="TextPosition" x="506" y="3843"><tspan fill="rgb(0,0,0)" stroke="none">8</tspan></tspan></tspan></text>
 <text class="TextShape"><tspan class="TextParagraph" font-family="Liberation Sans, sans-serif" font-size="353px" font-weight="400"><tspan class="TextPosition" x="321" y="2731"/><tspan class="TextPosition" x="321" y="2731"><tspan fill="rgb(0,0,0)" stroke="none">10</tspan></tspan></tspan></text>
 <text class="TextShape"><tspan class="TextParagraph" font-family="Liberation Sans, sans-serif" font-size="353px" font-weight="400"><tspan class="TextPosition" x="321" y="1619"/><tspan class="TextPosition" x="321" y="1619"><tspan fill="rgb(0,0,0)" stroke="none">12</tspan></tspan></tspan></text>
 <text class="TextShape"><tspan class="TextParagraph" font-family="Liberation Sans, sans-serif" font-size="353px" font-weight="400"><tspan class="TextPosition" x="1462" y="7436"/><tspan class="TextPosition" x="1462" y="7436"><tspan fill="rgb(0,0,0)" stroke="none">1</tspan></tspan></tspan></text>
 <text class="TextShape"><tspan class="TextParagraph" font-family="Liberation Sans, sans-serif" font-size="353px" font-weight="400"><tspan class="TextPosition" x="2690" y="7436"/><tspan class="TextPosition" x="2690" y="7436"><tspan fill="rgb(0,0,0)" stroke="none">1</tspan></tspan></tspan></text>
 <text class="TextShape"><tspan class="TextParagraph" font-family="Liberation Sans, sans-serif" font-size="353px" font-weight="400"><tspan class="TextPosition" x="3918" y="7436"/><tspan class="TextPosition" x="3918" y="7436"><tspan fill="rgb(0,0,0)" stroke="none">1</tspan></tspan></tspan></text>
 <text class="TextShape"><tspan class="TextParagraph" font-family="Liberation Sans, sans-serif" font-size="353px" font-weight="400"><tspan class="TextPosition" x="5146" y="7436"/><tspan class="TextPosition" x="5146" y="7436"><tspan fill="rgb(0,0,0)" stroke="none">1</tspan></tspan></tspan></text>
 <text class="TextShape"><tspan class="TextParagraph" font-family="Liberation Sans, sans-serif" font-size="353px" font-weight="400"><tspan class="TextPosition" x="6375" y="6880"/><tspan class="TextPosition" x="6375" y="6880"><tspan fill="rgb(0,0,0)" stroke="none">2</tspan></tspan></tspan></text>
 <text class="TextShape"><tspan class="TextParagraph" font-family="Liberation Sans, sans-serif" font-size="353px" font-weight="400"><tspan class="TextPosition" x="7603" y="5768"/><tspan class="TextPosition" x="7603" y="5768"><tspan fill="rgb(0,0,0)" stroke="none">4</tspan></tspan></tspan></text>
 <text class="TextShape"><tspan class="TextParagraph" font-family="Liberation Sans, sans-serif" font-size="353px" font-weight="400"><tspan class="TextPosition" x="8831" y="4101"/><tspan class="TextPosition" x="8831" y="4101"><tspan fill="rgb(0,0,0)" stroke="none">7</tspan></tspan></tspan></text>
 <text class="TextShape"><tspan class="TextParagraph" font-family="Liberation Sans, sans-serif" font-size="353px" font-weight="400"><tspan class="TextPosition" x="10059" y="5768"/><tspan class="TextPosition" x="10059" y="5768"><tspan fill="rgb(0,0,0)" stroke="none">4</tspan></tspan></tspan></text>
 <text class="TextShape"><tspan class="TextParagraph" font-family="Liberation Sans, sans-serif" font-size="353px" font-weight="400"><tspan class="TextPosition" x="11288" y="4656"/><tspan class="TextPosition" x="11288" y="4656"><tspan fill="rgb(0,0,0)" stroke="none">6</tspan></tspan></tspan></text>
 <text class="TextShape"><tspan class="TextParagraph" font-family="Liberation Sans, sans-serif" font-size="353px" font-weight="400"><tspan class="TextPosition" x="12516" y="5212"/><tspan class="TextPosition" x="12516" y="5212"><tspan fill="rgb(0,0,0)" stroke="none">5</tspan></tspan></tspan></text>
 <text class="TextShape"><tspan class="TextParagraph" font-family="Liberation Sans, sans-serif" font-size="353px" font-weight="400"><tspan class="TextPosition" x="13652" y="2433"/><tspan class="TextPosition" x="13652" y="2433"><tspan fill="rgb(0,0,0)" stroke="none">10</tspan></tspan></tspan></text>
 <text class="TextShape"><tspan class="TextParagraph" font-family="Liberation Sans, sans-serif" font-size="353px" font-weight="400"><tspan class="TextPosition" x="14972" y="3545"/><tspan class="TextPosition" x="14972" y="3545"><tspan fill="rgb(0,0,0)" stroke="none">8</tspan></tspan></tspan></text>
 <text class="TextShape"><tspan class="TextParagraph" font-family="Liberation Sans, sans-serif" font-size="459px" font-weight="400"><tspan class="TextPosition" x="4944" y="877"/><tspan class="TextPosition" x="4944" y="877"><tspan fill="rgb(0,0,0)" stroke="none">Total de Artigos por Ano - IEEE</tspan></tspan></tspan></text>
</svg>